<?xml version="1.0" encoding="UTF-8" standalone="no"?>
<!-- Created with Inkscape (http://www.inkscape.org/) -->

<svg
   width="52.426201mm"
   height="50.223625mm"
   viewBox="0 0 52.426201 50.223625"
   version="1.1"
   id="svg1"
   xml:space="preserve"
   xmlns="http://www.w3.org/2000/svg"
   xmlns:svg="http://www.w3.org/2000/svg"><defs
     id="defs1" /><g
     id="layer1"
     transform="translate(-48.887875,-26.606886)"><path
       d="m 62.763953,76.442128 c -4.824125,-1.09466 -9.711659,-4.95846 -11.887168,-9.39731 -1.515354,-3.09189 -2.002184,-5.13219 -1.988635,-8.33438 0.02314,-5.46962 2.358037,-10.5067 6.394435,-13.79472 l 1.482652,-1.20776 0.484697,-2.39918 c 1.171523,-5.79889 4.624804,-10.32519 9.852127,-12.91345 2.855972,-1.41411 5.355778,-1.91143 8.863542,-1.76336 6.626976,0.27975 12.340171,3.95683 15.197476,9.7813 1.223991,2.49504 1.995406,4.9598 2.006695,6.41161 0.0049,0.6322 0.237983,0.97416 1.089172,1.59806 4.501771,3.29968 7.427554,9.69843 7.016784,15.34584 -0.35402,4.86702 -1.86292,8.17441 -5.326373,11.67496 -1.982674,2.00391 -2.77144,2.59825 -4.637921,3.49475 -2.854679,1.37115 -5.061694,1.88707 -8.093614,1.892 -2.44584,0.004 -5.665737,-0.6309 -7.185445,-1.41677 -0.704008,-0.36405 -0.916445,-0.33475 -2.991981,0.41277 -1.914602,0.68955 -2.688307,0.81859 -5.409168,0.90214 -2.148138,0.066 -3.722317,-0.0267 -4.867275,-0.2865 z m 6.174165,-3.58774 c 1.009831,-0.14595 1.888238,-0.31755 1.952017,-0.38133 0.06378,-0.0638 -0.432564,-0.72605 -1.102984,-1.47172 -2.452888,-2.7282 -4.175043,-6.39061 -4.545743,-9.66717 l -0.181386,-1.60323 3.071541,-1.74736 3.07154,-1.74736 v 2.20772 2.20772 l -0.951635,0.58814 c -0.846668,0.52327 -0.934121,0.67887 -0.79285,1.41064 0.484183,2.50805 3.207952,6.20395 5.878492,7.97655 5.397554,3.58269 12.914824,2.96532 17.50721,-1.43782 4.709393,-4.51532 5.891965,-11.19424 2.991735,-16.8967 -0.854071,-1.67928 -2.597412,-3.84614 -2.92935,-3.641 -0.1168,0.0722 -0.289885,0.54448 -0.384633,1.04953 -0.254574,1.35699 -2.088212,4.8495 -3.34103,6.36361 -1.135452,1.37227 -3.637073,3.57187 -4.062306,3.57187 -0.369718,0 -5.978133,-3.19667 -5.978133,-3.4074 0,-0.10123 0.800268,-0.64433 1.778372,-1.20688 l 1.778372,-1.02283 1.065653,0.58371 1.065652,0.58372 0.98233,-1.1386 c 4.869034,-5.64358 4.616603,-13.96581 -0.584962,-19.28525 -5.609456,-5.73657 -14.639958,-5.75317 -20.295354,-0.0373 -1.575736,1.59258 -3.256185,4.428 -3.661518,6.17806 l -0.160762,0.69411 1.391542,-0.36096 c 3.481017,-0.90297 7.364036,-0.68443 10.859342,0.61116 l 1.812583,0.67186 v 3.54122 c 0,1.94767 -0.08237,3.54122 -0.183047,3.54122 -0.100676,0 -0.993645,-0.48157 -1.984375,-1.07015 -1.787571,-1.06198 -1.801328,-1.07899 -1.801328,-2.22704 v -1.15688 l -1.33594,-0.28651 c -5.852129,-1.25506 -12.324824,1.6647 -15.287995,6.89623 -1.026808,1.81284 -1.898297,5.07276 -1.892987,7.08094 0.01819,6.87785 5.400894,13.04044 12.269368,14.04705 1.922992,0.28183 1.95314,0.28174 3.982569,-0.0116 z"
       style="fill:#822ff4"
       id="path1-5" /></g></svg>
