<?xml version="1.0" encoding="UTF-8" standalone="no"?>
<!-- Created with Inkscape (http://www.inkscape.org/) -->

<svg
   width="76.041466mm"
   height="25.371048mm"
   viewBox="0 0 76.041466 25.371048"
   version="1.1"
   id="svg1"
   xml:space="preserve"
   xmlns="http://www.w3.org/2000/svg"
   xmlns:svg="http://www.w3.org/2000/svg"><defs
     id="defs1" /><g
     id="layer1"
     transform="translate(-213.44855,-36.118925)"><path
       d="m 221.18323,61.025212 c -3.3377,-1.15322 -6.10486,-3.96121 -7.2272,-7.33384 -0.75967,-2.28281 -0.65235,-6.33087 0.22738,-8.5765 1.14377,-2.91965 3.76278,-5.53465 6.65926,-6.64908 1.95977,-0.75403 5.10136,-0.80625 7.34219,-0.12205 l 1.65365,0.50491 v 3.09265 3.09265 l -1.28568,-0.63627 c -2.76251,-1.36715 -5.68849,-1.05383 -7.55089,0.80857 -1.34108,1.34108 -1.86026,2.92304 -1.69755,5.17246 0.32669,4.51645 4.59533,6.74982 9.02106,4.71986 l 1.52966,-0.70161 -0.0745,3.08907 -0.0744,3.08908 -1.4552,0.4558 c -1.96158,0.6144 -5.28081,0.61173 -7.06778,-0.006 z m 14.67695,0.13101 c -2.26088,-0.83814 -3.50669,-2.25614 -3.91294,-4.45375 -0.14789,-0.80002 -0.23637,-3.64522 -0.19663,-6.32266 l 0.0723,-4.86807 2.57969,-0.0757 2.57969,-0.0757 v 4.7326 c 0,4.9014 0.20961,6.20942 1.06877,6.66923 0.81196,0.43455 2.52237,0.303 3.20139,-0.24623 0.60948,-0.49298 0.62784,-0.63249 0.75692,-5.75469 l 0.13229,-5.24946 h 2.51354 2.51354 v 5.95313 5.95312 l -0.70779,1.20394 c -0.4979,0.84691 -1.1256,1.43399 -2.11667,1.9797 -1.29509,0.7131 -1.65459,0.78164 -4.45158,0.84863 -2.10332,0.0504 -3.34828,-0.0404 -4.03249,-0.29404 z m 36.44395,0.005 c -1.47015,-0.48218 -2.77812,-1.1925 -2.77812,-1.50872 0,-0.21889 1.49399,-3.37979 1.7178,-3.63443 0.0372,-0.0423 0.46955,0.15943 0.96083,0.44827 2.19072,1.288 4.59741,1.16098 4.59741,-0.24265 0,-0.5832 -0.22528,-0.73339 -1.98438,-1.32297 -3.2867,-1.10155 -4.22866,-2.08916 -4.23159,-4.43665 -0.003,-2.40749 1.07989,-3.99345 3.40364,-4.98482 1.67421,-0.71425 7.06114,-0.40192 7.5812,0.43957 0.0754,0.12194 -0.24136,0.98906 -0.70384,1.92692 l -0.84087,1.7052 -0.87598,-0.36601 c -1.60176,-0.66926 -3.53881,-0.28329 -3.53881,0.70513 0,0.38988 1.08719,0.96185 2.69439,1.4175 2.831,0.80262 4.07586,2.42607 3.84156,5.00988 -0.18378,2.02679 -1.15028,3.46205 -2.95841,4.39328 -1.06034,0.54609 -1.7459,0.6876 -3.56945,0.73676 -1.3182,0.0355 -2.69727,-0.0835 -3.31538,-0.28626 z m -21.56354,-12.60688 v -12.43542 h 2.64583 2.64584 v 12.43542 12.43542 h -2.64584 -2.64583 z m 9.525,7.01146 v -5.42396 h -1.20093 -1.20092 l 0.0764,-2.3151 0.0764,-2.31511 1.05833,-0.0165 1.05834,-0.0165 0.0764,-2.29862 0.0764,-2.29862 h 2.49294 2.49294 l 0.0764,2.2961 0.0764,2.2961 1.78594,-0.0654 1.78594,-0.0654 v 2.39949 2.39948 h -1.85208 -1.85209 v 5.42396 5.42396 h -2.51354 -2.51354 z m 24.85048,4.65056 c -1.30162,-1.30162 -1.01548,-3.3121 0.5895,-4.14207 1.76222,-0.91128 3.78445,0.32395 3.78445,2.31163 0,0.87327 -0.15808,1.21174 -0.85806,1.83716 -1.17457,1.04949 -2.46214,1.04703 -3.51589,-0.007 z"
       style="fill:#822ff4"
       id="path1-1" /></g></svg>
